<svg xmlns="http://www.w3.org/2000/svg" xmlns:xlink="http://www.w3.org/1999/xlink" width="500" zoomAndPan="magnify" viewBox="0 0 375 374.999991" height="500" preserveAspectRatio="xMidYMid meet" version="1.0"><defs><g/><clipPath id="b7f2ea156a"><path d="M 163.015625 156.277344 L 355.546875 156.277344 L 355.546875 248.8125 L 163.015625 248.8125 Z M 163.015625 156.277344 " clip-rule="nonzero"/></clipPath><clipPath id="93bd920768"><path d="M 167.472656 160.777344 L 341.171875 160.777344 L 341.171875 244.3125 L 167.472656 244.3125 Z M 167.472656 160.777344 " clip-rule="nonzero"/></clipPath><clipPath id="fa97b64841"><path d="M 177.464844 160.777344 L 351.167969 160.777344 L 351.167969 244.3125 L 177.464844 244.3125 Z M 177.464844 160.777344 " clip-rule="nonzero"/></clipPath></defs><g clip-path="url(#b7f2ea156a)"><path fill="#000000" d="M 163.015625 156.277344 L 355.671875 156.277344 L 355.671875 248.8125 L 163.015625 248.8125 Z M 163.015625 156.277344 " fill-opacity="1" fill-rule="nonzero"/></g><g clip-path="url(#93bd920768)"><path fill="#ffffff" d="M 167.472656 160.777344 L 341.070312 160.777344 L 341.070312 244.3125 L 167.472656 244.3125 Z M 167.472656 160.777344 " fill-opacity="1" fill-rule="nonzero"/></g><g clip-path="url(#fa97b64841)"><path fill="#49b0b6" d="M 177.464844 160.777344 L 351.066406 160.777344 L 351.066406 244.3125 L 177.464844 244.3125 Z M 177.464844 160.777344 " fill-opacity="1" fill-rule="nonzero"/></g><g fill="#ffffff" fill-opacity="1"><g transform="translate(183.497937, 217.333155)"><g><path d="M 2.84375 0 L 27.59375 0 C 28.484375 0 29.265625 -0.78125 29.265625 -1.671875 L 29.265625 -7.65625 C 29.265625 -8.546875 30.046875 -9.328125 30.9375 -9.328125 L 36.921875 -9.328125 C 37.8125 -9.328125 38.59375 -10.109375 38.59375 -11 L 38.59375 -26.421875 C 38.59375 -27.296875 37.8125 -28.09375 36.921875 -28.09375 L 12.171875 -28.09375 C 11.296875 -28.09375 10.5 -28.875 10.5 -29.75 L 10.5 -35.75 C 10.5 -36.625 11.296875 -37.421875 12.171875 -37.421875 L 36.921875 -37.421875 C 37.8125 -37.421875 38.59375 -38.203125 38.59375 -39.078125 L 38.59375 -45.078125 C 38.59375 -45.953125 37.8125 -46.75 36.921875 -46.75 L 12.171875 -46.75 C 11.296875 -46.75 10.5 -45.953125 10.5 -45.078125 L 10.5 -39.078125 C 10.5 -38.203125 9.71875 -37.421875 8.84375 -37.421875 L 2.84375 -37.421875 C 1.96875 -37.421875 1.171875 -36.625 1.171875 -35.75 L 1.171875 -20.328125 C 1.171875 -19.4375 1.96875 -18.65625 2.84375 -18.65625 L 27.59375 -18.65625 C 28.484375 -18.65625 29.265625 -17.875 29.265625 -16.984375 L 29.265625 -11 C 29.265625 -10.109375 28.484375 -9.328125 27.59375 -9.328125 L 2.84375 -9.328125 C 1.96875 -9.328125 1.171875 -8.546875 1.171875 -7.65625 L 1.171875 -1.671875 C 1.171875 -0.78125 1.96875 0 2.84375 0 Z M 2.84375 0 "/></g></g></g><g fill="#ffffff" fill-opacity="1"><g transform="translate(223.265444, 217.333155)"><g><path d="M 12.171875 0 L 27.59375 0 C 28.484375 0 29.265625 0.78125 29.265625 1.671875 L 29.265625 7.65625 C 29.265625 8.546875 28.484375 9.328125 27.59375 9.328125 L 2.84375 9.328125 C 1.96875 9.328125 1.171875 10.109375 1.171875 11 L 1.171875 16.984375 C 1.171875 17.875 1.96875 18.65625 2.84375 18.65625 L 27.59375 18.65625 C 28.484375 18.65625 29.265625 17.875 29.265625 16.984375 L 29.265625 11 C 29.265625 10.109375 30.046875 9.328125 30.9375 9.328125 L 36.921875 9.328125 C 37.8125 9.328125 38.59375 8.546875 38.59375 7.65625 L 38.59375 -45.078125 C 38.59375 -45.953125 37.8125 -46.75 36.921875 -46.75 L 30.9375 -46.75 C 30.046875 -46.75 29.265625 -45.953125 29.265625 -45.078125 L 29.265625 -11 C 29.265625 -10.109375 28.484375 -9.328125 27.59375 -9.328125 L 12.171875 -9.328125 C 11.296875 -9.328125 10.5 -10.109375 10.5 -11 L 10.5 -45.078125 C 10.5 -45.953125 9.71875 -46.75 8.84375 -46.75 L 2.84375 -46.75 C 1.96875 -46.75 1.171875 -45.953125 1.171875 -45.078125 L 1.171875 -11 C 1.171875 -10.109375 1.96875 -9.328125 2.84375 -9.328125 L 8.84375 -9.328125 C 9.71875 -9.328125 10.5 -8.546875 10.5 -7.65625 L 10.5 -1.671875 C 10.5 -0.78125 11.296875 0 12.171875 0 Z M 12.171875 0 "/></g></g></g><g fill="#ffffff" fill-opacity="1"><g transform="translate(263.032951, 217.333155)"><g><path d="M 2.84375 0 L 8.84375 0 C 9.71875 0 10.5 -0.78125 10.5 -1.671875 L 10.5 -35.75 C 10.5 -36.625 11.296875 -37.421875 12.171875 -37.421875 L 27.59375 -37.421875 C 28.484375 -37.421875 29.265625 -36.625 29.265625 -35.75 L 29.265625 -1.671875 C 29.265625 -0.78125 30.046875 0 30.9375 0 L 36.921875 0 C 37.8125 0 38.59375 -0.78125 38.59375 -1.671875 L 38.59375 -35.75 C 38.59375 -36.625 37.8125 -37.421875 36.921875 -37.421875 L 30.9375 -37.421875 C 30.046875 -37.421875 29.265625 -38.203125 29.265625 -39.078125 L 29.265625 -45.078125 C 29.265625 -45.953125 28.484375 -46.75 27.59375 -46.75 L 2.84375 -46.75 C 1.96875 -46.75 1.171875 -45.953125 1.171875 -45.078125 L 1.171875 -1.671875 C 1.171875 -0.78125 1.96875 0 2.84375 0 Z M 2.84375 0 "/></g></g></g><g fill="#ffffff" fill-opacity="1"><g transform="translate(302.800458, 217.333155)"><g><path d="M 12.171875 0 L 36.921875 0 C 37.8125 0 38.59375 -0.78125 38.59375 -1.671875 L 38.59375 -7.65625 C 38.59375 -8.546875 37.8125 -9.328125 36.921875 -9.328125 L 12.171875 -9.328125 C 11.296875 -9.328125 10.5 -10.109375 10.5 -11 L 10.5 -35.75 C 10.5 -36.625 11.296875 -37.421875 12.171875 -37.421875 L 36.921875 -37.421875 C 37.8125 -37.421875 38.59375 -38.203125 38.59375 -39.078125 L 38.59375 -45.078125 C 38.59375 -45.953125 37.8125 -46.75 36.921875 -46.75 L 12.171875 -46.75 C 11.296875 -46.75 10.5 -45.953125 10.5 -45.078125 L 10.5 -39.078125 C 10.5 -38.203125 9.71875 -37.421875 8.84375 -37.421875 L 2.84375 -37.421875 C 1.96875 -37.421875 1.171875 -36.625 1.171875 -35.75 L 1.171875 -11 C 1.171875 -10.109375 1.96875 -9.328125 2.84375 -9.328125 L 8.84375 -9.328125 C 9.71875 -9.328125 10.5 -8.546875 10.5 -7.65625 L 10.5 -1.671875 C 10.5 -0.78125 11.296875 0 12.171875 0 Z M 12.171875 0 "/></g></g></g><g fill="#000000" fill-opacity="1"><g transform="translate(20.833714, 218.188438)"><g><path d="M 20.4375 -12.203125 L 20.4375 -23.59375 L 29.421875 -23.59375 L 29.421875 0 L 25.15625 0 L 22.21875 -7.125 C 21.53125 -4.476562 20.328125 -2.515625 18.609375 -1.234375 C 16.890625 0.0351562 14.84375 0.671875 12.46875 0.671875 C 9.320312 0.671875 6.820312 -0.304688 4.96875 -2.265625 C 3.113281 -4.222656 2.1875 -7.101562 2.1875 -10.90625 L 2.1875 -23.59375 L 11.078125 -23.59375 L 11.078125 -12.234375 C 11.078125 -10.335938 11.414062 -9.019531 12.09375 -8.28125 C 12.78125 -7.539062 13.910156 -7.171875 15.484375 -7.171875 C 17.054688 -7.171875 18.273438 -7.609375 19.140625 -8.484375 C 20.003906 -9.359375 20.4375 -10.597656 20.4375 -12.203125 Z M 20.4375 -12.203125 "/></g></g></g><g fill="#000000" fill-opacity="1"><g transform="translate(53.012645, 218.188438)"><g><path d="M 31.078125 0 L 20.828125 0 L 14.734375 -9.875 L 11.34375 -5.75 L 11.34375 0 L 2.765625 0 L 2.765625 -32.5 L 11.34375 -32.5 L 11.34375 -13.578125 L 19.359375 -23.59375 L 30.625 -23.59375 L 22.21875 -13.84375 Z M 31.078125 0 "/></g></g></g><g fill="#000000" fill-opacity="1"><g transform="translate(83.767335, 218.188438)"><g><path d="M 11.96875 -30.40625 C 11.96875 -31.738281 11.550781 -32.796875 10.71875 -33.578125 C 9.894531 -34.367188 8.726562 -34.765625 7.21875 -34.765625 C 5.664062 -34.765625 4.484375 -34.367188 3.671875 -33.578125 C 2.859375 -32.796875 2.453125 -31.738281 2.453125 -30.40625 C 2.453125 -29.070312 2.859375 -28.007812 3.671875 -27.21875 C 4.484375 -26.4375 5.664062 -26.046875 7.21875 -26.046875 C 8.726562 -26.046875 9.894531 -26.4375 10.71875 -27.21875 C 11.550781 -28.007812 11.96875 -29.070312 11.96875 -30.40625 Z M 11.65625 0 L 2.765625 0 L 2.765625 -23.59375 L 11.65625 -23.59375 Z M 11.65625 0 "/></g></g></g><g fill="#000000" fill-opacity="1"><g transform="translate(98.187775, 218.188438)"><g><path d="M 14.78125 -8.953125 L 20.25 -23.59375 L 29.46875 -23.59375 L 20.25 -1.296875 C 19.15625 1.378906 18.019531 3.503906 16.84375 5.078125 C 15.675781 6.648438 14.296875 7.785156 12.703125 8.484375 C 11.117188 9.179688 9.171875 9.53125 6.859375 9.53125 C 5.816406 9.53125 4.84375 9.460938 3.9375 9.328125 C 3.03125 9.191406 2.28125 9.050781 1.6875 8.90625 L 1.6875 1.78125 C 2.34375 1.84375 3.007812 1.898438 3.6875 1.953125 C 4.375 2.015625 4.984375 2.046875 5.515625 2.046875 C 6.648438 2.046875 7.503906 1.835938 8.078125 1.421875 C 8.660156 1.003906 9.144531 0.304688 9.53125 -0.671875 L -0.484375 -23.59375 L 9.265625 -23.59375 Z M 14.78125 -8.953125 "/></g></g></g><g fill="#000000" fill-opacity="1"><g transform="translate(127.162169, 218.188438)"><g><path d="M 16.03125 0.671875 C 12.820312 0.671875 10.117188 0.148438 7.921875 -0.890625 C 5.722656 -1.929688 4.0625 -3.351562 2.9375 -5.15625 C 1.8125 -6.96875 1.25 -9.019531 1.25 -11.3125 L 1.25 -12.28125 C 1.25 -14.601562 1.8125 -16.660156 2.9375 -18.453125 C 4.0625 -20.242188 5.722656 -21.660156 7.921875 -22.703125 C 10.117188 -23.742188 12.820312 -24.265625 16.03125 -24.265625 C 19.257812 -24.265625 21.972656 -23.742188 24.171875 -22.703125 C 26.367188 -21.660156 28.03125 -20.242188 29.15625 -18.453125 C 30.28125 -16.660156 30.84375 -14.601562 30.84375 -12.28125 L 30.84375 -11.3125 C 30.84375 -9.019531 30.28125 -6.96875 29.15625 -5.15625 C 28.03125 -3.351562 26.367188 -1.929688 24.171875 -0.890625 C 21.972656 0.148438 19.257812 0.671875 16.03125 0.671875 Z M 16.03125 -6.59375 C 18.039062 -6.59375 19.519531 -7.039062 20.46875 -7.9375 C 21.425781 -8.84375 21.90625 -10.160156 21.90625 -11.890625 C 21.90625 -13.515625 21.425781 -14.769531 20.46875 -15.65625 C 19.519531 -16.550781 18.039062 -17 16.03125 -17 C 14.039062 -17 12.566406 -16.550781 11.609375 -15.65625 C 10.660156 -14.769531 10.1875 -13.515625 10.1875 -11.890625 C 10.1875 -10.160156 10.660156 -8.84375 11.609375 -7.9375 C 12.566406 -7.039062 14.039062 -6.59375 16.03125 -6.59375 Z M 16.03125 -6.59375 "/></g></g></g></svg>